<?xml version="1.0" standalone="no"?>
<!DOCTYPE svg PUBLIC "-//W3C//DTD SVG 20010904//EN"
 "http://www.w3.org/TR/2001/REC-SVG-20010904/DTD/svg10.dtd">
<svg version="1.0" xmlns="http://www.w3.org/2000/svg"
 width="2538.000000pt" height="1838.000000pt" viewBox="0 0 2538.000000 1838.000000"
 preserveAspectRatio="xMidYMid meet">

<g transform="translate(0.000000,1838.000000) scale(0.100000,-0.100000)"
fill="#000000" stroke="none">
<path d="M6875 15333 c-559 -120 -1036 -324 -1540 -658 -203 -135 -318 -230
-524 -430 -263 -257 -533 -573 -794 -932 -146 -201 -234 -348 -352 -588 -358
-729 -545 -1537 -611 -2640 -22 -378 -10 -551 72 -1035 25 -146 58 -345 75
-442 122 -743 377 -1451 773 -2147 130 -228 166 -284 398 -603 563 -779 841
-1116 1201 -1456 218 -207 869 -733 1252 -1014 142 -104 410 -288 418 -288 3
0 -69 116 -162 257 -589 905 -990 1650 -1266 2353 -187 476 -372 1071 -419
1350 -52 304 -42 566 30 802 21 67 31 88 48 92 13 3 27 -1 37 -12 9 -9 103
-141 209 -292 534 -761 786 -1058 1205 -1418 417 -359 747 -563 1133 -704 46
-17 85 -29 87 -26 2 2 -57 75 -132 163 -519 613 -827 1054 -1051 1502 -144
287 -237 528 -253 654 -18 142 16 273 84 323 24 18 30 19 37 6 4 -8 56 -87
115 -175 685 -1023 1563 -1776 2500 -2144 149 -59 413 -147 419 -140 2 2 -89
112 -202 244 -523 612 -777 957 -1057 1435 -216 369 -291 532 -347 749 -25 98
-29 131 -26 212 3 83 8 104 35 160 18 35 50 82 72 103 l40 39 18 -32 c197
-354 513 -820 811 -1196 654 -823 1683 -1886 2552 -2634 300 -258 606 -501
888 -705 l93 -67 67 53 c1213 955 2223 1908 3143 2968 282 325 722 941 1014
1420 117 192 108 184 152 135 20 -22 49 -69 66 -104 27 -56 31 -78 35 -170 6
-145 -9 -196 -127 -431 -318 -633 -761 -1281 -1369 -2003 -69 -81 -123 -150
-120 -152 7 -7 212 42 310 75 128 43 407 181 559 277 209 131 656 442 789 547
69 55 215 190 326 300 274 274 445 483 849 1030 151 205 200 264 207 253 17
-31 38 -215 38 -338 0 -132 -17 -258 -50 -369 -67 -225 -389 -716 -1073 -1638
-148 -200 -267 -365 -264 -368 8 -8 233 93 351 157 228 125 515 329 786 558
621 526 834 767 1308 1480 246 370 216 350 271 184 55 -165 66 -239 66 -458 0
-236 -13 -328 -85 -610 -54 -211 -173 -596 -251 -808 -165 -454 -398 -932
-747 -1537 -145 -251 -579 -976 -632 -1055 -74 -111 -117 -186 -139 -242 -11
-29 -19 -53 -16 -53 10 0 200 119 340 214 580 391 1220 965 1865 1676 776 855
1270 1699 1635 2796 165 495 245 936 285 1559 20 313 31 912 20 1065 -96 1347
-589 2573 -1414 3518 -401 460 -833 788 -1401 1063 -274 133 -623 265 -872
329 -153 39 -154 50 12 -225 314 -519 439 -814 518 -1221 49 -252 61 -370 61
-599 -1 -286 -35 -510 -114 -739 -51 -149 -100 -250 -200 -416 -170 -283 -288
-406 -670 -703 -74 -58 -136 -104 -137 -103 -1 1 25 105 58 231 101 391 297
1290 285 1303 -21 20 -734 279 -1011 367 -1286 405 -2543 624 -4000 696 -303
15 -1124 15 -1445 0 -713 -33 -1455 -107 -2029 -202 -894 -147 -1874 -415
-2811 -767 -191 -72 -210 -81 -210 -96 0 -20 95 -485 136 -666 49 -214 125
-514 178 -704 25 -88 44 -162 41 -164 -5 -5 -190 138 -335 258 -127 106 -309
291 -373 382 -26 36 -77 117 -113 179 -186 322 -253 523 -290 878 -22 207 -15
590 15 754 75 421 248 841 565 1370 68 114 119 206 112 206 -6 -1 -20 -3 -31
-6z"/>
<path d="M10122 3570 c-12 -19 -23 -20 -392 -20 -209 0 -380 -3 -380 -8 0 -4
9 -13 20 -20 19 -12 20 -23 20 -387 0 -362 -1 -374 -20 -388 -11 -8 -17 -17
-13 -20 3 -4 179 -7 389 -7 373 0 384 -1 394 -20 22 -42 30 -18 30 90 0 108
-8 132 -30 90 -10 -19 -21 -20 -290 -20 l-280 0 0 110 0 110 180 0 c169 0 181
-1 192 -20 7 -11 16 -20 20 -20 5 0 8 50 8 110 0 61 -3 110 -8 110 -4 0 -13
-9 -20 -20 -11 -19 -23 -20 -192 -20 l-180 0 0 95 0 95 270 0 c259 0 270 -1
282 -20 7 -11 16 -20 20 -20 5 0 8 50 8 110 0 61 -3 110 -8 110 -4 0 -13 -9
-20 -20z"/>
<path d="M15622 3570 c-12 -19 -23 -20 -392 -20 -209 0 -380 -3 -380 -8 0 -4
9 -13 20 -20 19 -12 20 -23 20 -387 0 -362 -1 -374 -20 -388 -11 -8 -17 -17
-13 -20 3 -4 179 -7 389 -7 373 0 384 -1 394 -20 22 -42 30 -18 30 90 0 108
-8 132 -30 90 -10 -19 -21 -20 -290 -20 l-280 0 0 110 0 110 180 0 c169 0 181
-1 192 -20 7 -11 16 -20 20 -20 5 0 8 50 8 110 0 61 -3 110 -8 110 -4 0 -13
-9 -20 -20 -11 -19 -23 -20 -192 -20 l-180 0 0 95 0 95 270 0 c259 0 270 -1
282 -20 7 -11 16 -20 20 -20 5 0 8 50 8 110 0 61 -3 110 -8 110 -4 0 -13 -9
-20 -20z"/>
<path d="M15730 3480 c0 -60 3 -110 8 -110 4 0 13 9 20 20 11 18 23 20 152 20
l140 0 0 -320 c0 -308 -1 -321 -20 -337 -11 -10 -20 -21 -20 -25 0 -10 244
-11 253 -1 4 3 -2 12 -13 20 -19 14 -20 26 -20 339 l0 324 140 0 c129 0 140
-1 150 -20 22 -42 30 -18 30 90 0 108 -8 132 -30 90 -10 -19 -21 -20 -380 -20
-359 0 -370 1 -382 20 -7 11 -16 20 -20 20 -5 0 -8 -49 -8 -110z"/>
<path d="M8685 3546 c-106 -26 -182 -86 -210 -165 -29 -82 -15 -168 37 -227
56 -64 116 -83 323 -104 143 -14 181 -25 202 -56 15 -23 15 -28 0 -59 -47 -98
-253 -112 -426 -29 -40 20 -57 35 -67 61 -8 18 -18 31 -23 29 -8 -5 -76 -156
-83 -185 -2 -9 8 -14 32 -16 19 -1 63 -14 98 -29 168 -72 380 -73 518 -3 60
30 86 58 113 117 51 112 8 241 -99 295 -61 31 -106 41 -250 55 -183 19 -220
33 -220 89 0 57 80 101 187 101 119 0 260 -55 290 -114 l16 -30 48 94 c26 52
48 99 48 104 1 4 -10 5 -24 2 -15 -4 -51 5 -102 25 -144 57 -293 74 -408 45z"/>
<path d="M10613 3545 c-225 -49 -363 -246 -332 -472 22 -160 124 -278 287
-335 56 -19 88 -23 192 -23 143 0 185 11 318 81 64 34 88 43 109 38 l27 -7
-18 29 c-100 153 -116 170 -116 122 0 -47 -151 -117 -270 -125 -203 -15 -350
104 -350 282 0 178 147 297 350 282 128 -9 270 -78 270 -132 0 -14 4 -25 9
-25 10 0 110 150 110 165 0 6 -9 9 -20 7 -11 -2 -70 22 -132 53 -62 30 -136
60 -166 65 -74 14 -193 11 -268 -5z"/>
<path d="M16875 3546 c-106 -26 -182 -86 -210 -165 -29 -82 -15 -168 37 -227
56 -64 116 -83 323 -104 143 -14 181 -25 202 -56 15 -23 15 -28 0 -59 -47 -98
-253 -112 -426 -29 -40 20 -57 35 -67 61 -8 18 -18 31 -23 29 -8 -5 -76 -156
-83 -185 -2 -9 8 -14 32 -16 19 -1 63 -14 98 -29 168 -72 380 -73 518 -3 60
30 86 58 113 117 51 112 8 241 -99 295 -61 31 -106 41 -250 55 -183 19 -220
33 -220 89 0 57 80 101 187 101 119 0 260 -55 290 -114 l16 -30 48 94 c26 52
48 99 48 104 1 4 -10 5 -24 2 -15 -4 -51 5 -102 25 -144 57 -293 74 -408 45z"/>
<path d="M11330 3540 c0 -5 8 -13 18 -19 15 -9 17 -38 22 -313 5 -301 5 -304
31 -353 45 -89 145 -132 329 -142 246 -13 398 51 441 186 8 22 14 145 16 323
4 231 8 289 19 299 29 24 11 29 -106 29 -118 0 -142 -7 -99 -30 20 -11 20 -17
17 -283 -3 -311 -5 -319 -88 -360 -37 -18 -62 -22 -145 -22 -87 0 -106 3 -149
25 -84 42 -86 51 -86 362 0 257 1 268 20 280 11 7 20 16 20 20 0 5 -58 8 -130
8 -75 0 -130 -4 -130 -10z"/>
<path d="M12350 3543 c0 -4 9 -14 20 -21 19 -12 20 -23 20 -387 0 -362 -1
-374 -20 -388 -11 -8 -17 -17 -13 -20 9 -10 253 -9 253 1 0 4 -9 15 -20 25
-18 15 -20 29 -20 162 l0 145 113 0 114 0 97 -146 c88 -132 107 -174 76 -174
-5 0 -10 -4 -10 -10 0 -6 57 -10 150 -10 93 0 150 4 150 10 0 6 -6 10 -14 10
-23 0 -66 49 -156 180 -47 68 -88 129 -93 136 -5 9 9 17 48 29 142 41 206 192
141 330 -28 60 -46 77 -111 107 -48 22 -60 23 -387 26 -186 2 -338 0 -338 -5z
m618 -144 c39 -13 62 -48 62 -94 0 -46 -23 -81 -62 -94 -18 -6 -109 -11 -214
-11 l-184 0 0 105 0 105 184 0 c105 0 196 -5 214 -11z"/>
<path d="M13350 3542 c0 -4 9 -13 20 -20 19 -12 20 -23 20 -387 0 -362 -1
-374 -20 -388 -11 -8 -17 -17 -13 -20 9 -10 253 -9 253 1 0 4 -9 15 -20 25
-19 16 -20 29 -20 382 0 353 1 366 20 382 11 10 20 21 20 25 0 5 -58 8 -130 8
-71 0 -130 -3 -130 -8z"/>
<path d="M13760 3542 c0 -4 9 -13 20 -20 19 -12 20 -23 20 -387 0 -362 -1
-374 -20 -388 -11 -8 -17 -17 -13 -20 3 -4 57 -7 118 -7 61 0 115 3 118 7 4 3
-2 12 -13 20 -19 14 -20 26 -20 276 l0 262 210 -215 c273 -279 287 -296 272
-321 -7 -10 -12 -21 -12 -24 0 -8 246 -6 253 2 4 3 -2 12 -13 20 -19 14 -20
26 -20 388 0 364 1 375 20 387 11 7 20 16 20 20 0 5 -56 8 -125 8 -69 0 -125
-3 -125 -6 0 -3 9 -13 20 -22 20 -16 20 -26 18 -269 l-3 -252 -225 235 c-124
130 -229 245 -235 256 -7 15 -5 23 8 33 9 7 17 15 17 19 0 3 -65 6 -145 6 -80
0 -145 -3 -145 -8z"/>
<path d="M11402 2070 c-12 -19 -23 -20 -392 -20 -209 0 -380 -3 -380 -8 0 -4
9 -13 20 -20 19 -12 20 -23 20 -387 0 -362 -1 -374 -20 -388 -11 -8 -17 -17
-13 -20 3 -4 179 -7 389 -7 373 0 384 -1 394 -20 22 -42 30 -18 30 90 0 108
-8 132 -30 90 -10 -19 -21 -20 -290 -20 l-280 0 0 110 0 110 180 0 c169 0 181
-1 192 -20 7 -11 16 -20 20 -20 5 0 8 50 8 110 0 61 -3 110 -8 110 -4 0 -13
-9 -20 -20 -11 -19 -23 -20 -192 -20 l-180 0 0 95 0 95 270 0 c259 0 270 -1
282 -20 7 -11 16 -20 20 -20 5 0 8 50 8 110 0 61 -3 110 -8 110 -4 0 -13 -9
-20 -20z"/>
<path d="M14770 1980 c0 -60 3 -110 8 -110 4 0 13 9 20 20 11 18 23 20 152 20
l140 0 0 -320 c0 -308 -1 -321 -20 -337 -11 -10 -20 -21 -20 -25 0 -10 244
-11 253 -1 4 3 -2 12 -13 20 -19 14 -20 26 -20 339 l0 324 140 0 c129 0 140
-1 150 -20 22 -42 30 -18 30 90 0 108 -8 132 -30 90 -10 -19 -21 -20 -380 -20
-359 0 -370 1 -382 20 -7 11 -16 20 -20 20 -5 0 -8 -49 -8 -110z"/>
<path d="M11805 2046 c-106 -26 -182 -86 -210 -165 -29 -82 -15 -168 37 -227
56 -64 116 -83 323 -104 143 -14 181 -25 202 -56 15 -23 15 -28 0 -59 -47 -98
-253 -112 -426 -29 -40 20 -57 35 -67 61 -8 18 -18 31 -23 29 -8 -5 -76 -156
-83 -185 -2 -9 8 -14 32 -16 19 -1 63 -14 98 -29 168 -72 380 -73 518 -3 60
30 86 58 113 117 51 112 8 241 -99 295 -61 31 -106 41 -250 55 -183 19 -220
33 -220 89 0 57 80 101 187 101 119 0 260 -55 290 -114 l16 -30 48 94 c26 52
48 99 48 104 1 4 -10 5 -24 2 -15 -4 -51 5 -102 25 -144 57 -293 74 -408 45z"/>
<path d="M12470 2042 c0 -4 9 -13 20 -20 19 -12 20 -23 20 -387 0 -362 -1
-374 -20 -388 -11 -8 -17 -17 -13 -20 9 -10 253 -9 253 1 0 4 -9 15 -20 25
-18 15 -20 29 -20 157 l0 140 193 0 c217 0 289 12 347 59 113 91 113 294 0
383 -65 51 -123 58 -457 58 -167 0 -303 -3 -303 -8z m617 -151 c27 -18 43 -53
43 -91 0 -16 -5 -40 -11 -53 -21 -47 -41 -52 -241 -55 l-188 -4 0 112 0 112
188 -4 c142 -2 192 -6 209 -17z"/>
<path d="M13420 2043 c0 -4 9 -14 20 -21 19 -12 20 -23 20 -387 0 -362 -1
-374 -20 -388 -11 -8 -17 -17 -13 -20 9 -10 253 -9 253 1 0 4 -9 15 -20 25
-18 15 -20 29 -20 162 l0 145 113 0 114 0 97 -146 c88 -132 107 -174 76 -174
-5 0 -10 -4 -10 -10 0 -6 57 -10 150 -10 93 0 150 4 150 10 0 6 -6 10 -14 10
-23 0 -66 49 -156 180 -47 68 -88 129 -93 136 -5 9 9 17 48 29 142 41 206 192
141 330 -28 60 -46 77 -111 107 -48 22 -60 23 -387 26 -186 2 -338 0 -338 -5z
m618 -144 c39 -13 62 -48 62 -94 0 -46 -23 -81 -62 -94 -18 -6 -109 -11 -214
-11 l-184 0 0 105 0 105 184 0 c105 0 196 -5 214 -11z"/>
<path d="M14420 2042 c0 -4 9 -13 20 -20 19 -12 20 -23 20 -387 0 -362 -1
-374 -20 -388 -11 -8 -17 -17 -13 -20 9 -10 253 -9 253 1 0 4 -9 15 -20 25
-19 16 -20 29 -20 382 0 353 1 366 20 382 11 10 20 21 20 25 0 5 -58 8 -130 8
-71 0 -130 -3 -130 -8z"/>
</g>
</svg>
